<svg xmlns="http://www.w3.org/2000/svg" viewBox="0 0 520 380" fill="none">
  <defs>
    <linearGradient id="ring" x1="170" y1="92" x2="520" y2="332" gradientUnits="userSpaceOnUse">
      <stop stop-color="#ffffff" stop-opacity="0"/>
      <stop offset="0.28" stop-color="#ffffff" stop-opacity="0.2"/>
      <stop offset="0.48" stop-color="#ffffff" stop-opacity="0.78"/>
      <stop offset="0.7" stop-color="#ffffff" stop-opacity="0.42"/>
      <stop offset="1" stop-color="#ffffff" stop-opacity="0.04"/>
    </linearGradient>
    <linearGradient id="bright" x1="250" y1="86" x2="514" y2="320" gradientUnits="userSpaceOnUse">
      <stop stop-color="#ffffff" stop-opacity="0"/>
      <stop offset="0.34" stop-color="#ffffff" stop-opacity="0.2"/>
      <stop offset="0.55" stop-color="#ffffff" stop-opacity="0.95"/>
      <stop offset="0.74" stop-color="#ffffff" stop-opacity="0.38"/>
      <stop offset="1" stop-color="#ffffff" stop-opacity="0"/>
    </linearGradient>
    <radialGradient id="depth" cx="0" cy="0" r="1" gradientUnits="userSpaceOnUse" gradientTransform="translate(486 252) rotate(90) scale(150 170)">
      <stop stop-color="#ffffff" stop-opacity="0.1"/>
      <stop offset="0.42" stop-color="#ffffff" stop-opacity="0.03"/>
      <stop offset="1" stop-color="#ffffff" stop-opacity="0"/>
    </radialGradient>
    <filter id="softGlow" x="-20%" y="-20%" width="140%" height="140%">
      <feGaussianBlur stdDeviation="0.85" result="blur"/>
      <feMerge>
        <feMergeNode in="blur"/>
        <feMergeNode in="SourceGraphic"/>
      </feMerge>
    </filter>
    <mask id="fade">
      <rect width="520" height="380" fill="black"/>
      <linearGradient id="leftFade" x1="132" y1="0" x2="520" y2="0" gradientUnits="userSpaceOnUse">
        <stop stop-color="white" stop-opacity="0"/>
        <stop offset="0.17" stop-color="white" stop-opacity="0.18"/>
        <stop offset="0.34" stop-color="white" stop-opacity="0.9"/>
        <stop offset="1" stop-color="white"/>
      </linearGradient>
      <rect x="120" y="0" width="400" height="380" fill="url(#leftFade)"/>
    </mask>
  </defs>
  <rect x="178" y="48" width="342" height="312" fill="url(#depth)"/>
  <g mask="url(#fade)" filter="url(#softGlow)" fill="none" stroke="url(#ring)" stroke-linecap="round">
    <circle cx="502" cy="254" r="46" stroke-width="1.35" opacity="0.62"/>
    <circle cx="502" cy="254" r="58" stroke-width="1.15" opacity="0.46"/>
    <circle cx="502" cy="254" r="71" stroke-width="1.1" opacity="0.48"/>
    <circle cx="502" cy="254" r="84" stroke-width="1.05" opacity="0.52"/>
    <circle cx="502" cy="254" r="98" stroke-width="1" opacity="0.45"/>
    <circle cx="502" cy="254" r="113" stroke-width="1.15" opacity="0.58"/>
    <circle cx="502" cy="254" r="128" stroke-width="0.9" opacity="0.42"/>
    <circle cx="502" cy="254" r="144" stroke-width="1.1" opacity="0.56"/>
    <circle cx="502" cy="254" r="160" stroke-width="0.85" opacity="0.4"/>
    <circle cx="502" cy="254" r="177" stroke-width="0.95" opacity="0.47"/>
    <circle cx="502" cy="254" r="194" stroke-width="0.8" opacity="0.36"/>
    <circle cx="502" cy="254" r="212" stroke-width="0.9" opacity="0.42"/>
    <circle cx="502" cy="254" r="230" stroke-width="0.76" opacity="0.34"/>
    <circle cx="502" cy="254" r="249" stroke-width="0.8" opacity="0.36"/>
    <circle cx="502" cy="254" r="269" stroke-width="0.7" opacity="0.3"/>
    <circle cx="502" cy="254" r="290" stroke-width="0.65" opacity="0.24"/>
  </g>
  <g mask="url(#fade)" filter="url(#softGlow)" fill="none" stroke="url(#bright)" stroke-linecap="round">
    <path d="M235 196 A280 280 0 0 1 520 78" stroke-width="1.65"/>
    <path d="M248 222 A246 246 0 0 1 520 92" stroke-width="1.25" opacity="0.72"/>
    <path d="M270 250 A214 214 0 0 1 520 118" stroke-width="1.05" opacity="0.64"/>
    <path d="M303 282 A176 176 0 0 1 520 154" stroke-width="1.25" opacity="0.72"/>
    <path d="M334 304 A142 142 0 0 1 520 188" stroke-width="1.55" opacity="0.9"/>
    <path d="M378 318 A102 102 0 0 1 520 218" stroke-width="1.2" opacity="0.72"/>
    <path d="M270 168 A238 238 0 0 1 520 48" stroke-width="0.85" opacity="0.36"/>
    <path d="M220 240 A305 305 0 0 0 520 366" stroke-width="1.15" opacity="0.46"/>
    <path d="M276 278 A240 240 0 0 0 520 342" stroke-width="1.5" opacity="0.78"/>
    <path d="M342 312 A168 168 0 0 0 520 318" stroke-width="1.35" opacity="0.7"/>
  </g>
</svg>
